<svg width="25" height="24" viewBox="0 0 25 24" fill="none" xmlns="http://www.w3.org/2000/svg">
<path d="M4.61316 20.094H8.22216V9.25H4.61316V20.094ZM8.45716 5.906C8.44116 4.844 7.67616 4.031 6.44116 4.031C5.20616 4.031 4.39416 4.843 4.39416 5.906C4.39416 6.937 5.17516 7.781 6.39416 7.781H6.41016C7.67616 7.781 8.45716 6.937 8.45716 5.906ZM17.5982 20.094H21.2072V13.875C21.2072 10.547 19.4262 9 17.0512 9C15.1142 9 14.2542 10.078 13.7852 10.828H13.8162V9.25H10.2072C10.2072 9.25 10.2542 10.266 10.2072 20.094H13.8162V14.032C13.8162 13.719 13.8322 13.391 13.9252 13.157C14.1912 12.516 14.7842 11.844 15.7842 11.844C17.0812 11.844 17.5972 12.828 17.5972 14.297L17.5982 20.094ZM24.9102 4.5V19.5C24.9102 21.984 22.8942 24 20.4102 24H5.41016C2.92616 24 0.910156 21.984 0.910156 19.5V4.5C0.910156 2.016 2.92616 0 5.41016 0H20.4102C22.8942 0 24.9102 2.016 24.9102 4.5Z" fill="white"/>
</svg>
