<svg width="25" height="24" viewBox="0 0 25 24" fill="none" xmlns="http://www.w3.org/2000/svg">
<path d="M20.8101 7.531C20.2161 7.797 19.5911 7.969 18.9191 8.062C19.6071 7.656 20.1221 7 20.3721 6.234C19.7311 6.609 19.0281 6.89 18.2781 7.031C17.6841 6.39 16.8251 6 15.8871 6C14.0741 6 12.6061 7.469 12.6061 9.281C12.6061 9.531 12.6221 9.797 12.6841 10.031C9.95006 9.89 7.52806 8.594 5.90306 6.594C5.62206 7.078 5.45006 7.656 5.45006 8.25C5.45006 9.391 5.98106 10.391 6.87206 10.984C6.32506 10.968 5.81006 10.812 5.30906 10.578V10.609C5.30906 12.203 6.51206 13.531 8.01206 13.828C7.73106 13.906 7.51206 13.953 7.21506 13.953C7.01206 13.953 6.80906 13.922 6.60606 13.89C7.02806 15.187 8.23106 16.14 9.66906 16.171C8.54406 17.046 7.13806 17.577 5.59106 17.577C5.32506 17.577 5.06006 17.561 4.81006 17.53C6.26306 18.452 7.98206 18.999 9.84106 18.999C15.8721 18.999 19.1851 13.999 19.1851 9.655C19.1851 9.514 19.1851 9.374 19.1691 9.233C19.8101 8.78 20.3721 8.202 20.8101 7.53V7.531ZM24.8101 4.5V19.5C24.8101 21.984 22.7941 24 20.3101 24H5.31006C2.82606 24 0.810059 21.984 0.810059 19.5V4.5C0.810059 2.016 2.82606 0 5.31006 0H20.3101C22.7941 0 24.8101 2.016 24.8101 4.5Z" fill="white"/>
</svg>
