<?xml version="1.0" encoding="utf-8"?>
<!-- Generator: Adobe Illustrator 24.2.0, SVG Export Plug-In . SVG Version: 6.00 Build 0)  -->
<svg version="1.1" id="Layer_1" xmlns="http://www.w3.org/2000/svg" xmlns:xlink="http://www.w3.org/1999/xlink" x="0px" y="0px"
	 viewBox="0 0 280 69" style="enable-background:new 0 0 280 69;" xml:space="preserve">
<style type="text/css">
	.st0{fill:none;}
	.st1{clip-path:url(#SVGID_2_);}
	.st2{clip-path:url(#SVGID_4_);}
	.st3{fill:#FFFFFF;}
</style>
<rect class="st0" width="280" height="68.8"/>
<g>
	<path class="st3" d="M41,3.3V29c0,2.9-0.6,5.5-1.8,7.6c-1.2,2.1-3,3.8-5.3,4.9c-2.3,1.1-5.1,1.7-8.2,1.7c-4.8,0-8.5-1.2-11.3-3.7
		c-2.8-2.5-4.2-5.9-4.2-10.2V3.3h9.5v26.1c0.1,4.3,2.1,6.5,6,6.5c2,0,3.5-0.5,4.5-1.6c1-1.1,1.5-2.8,1.5-5.3V3.3H41z"/>
	<path class="st3" d="M73.6,28.3c0,4.8-1,8.5-3,11c-2,2.6-4.8,3.9-8.3,3.9c-3,0-5.4-1.2-7.2-3.5l-0.4,3h-8.1V1.1h9.1v14.6
		c1.7-1.9,3.9-2.9,6.5-2.9c3.7,0,6.5,1.3,8.4,3.9c2,2.6,3,6.3,3,11L73.6,28.3L73.6,28.3z M64.5,27.7c0-2.8-0.4-4.8-1.1-6
		c-0.8-1.2-1.9-1.8-3.5-1.8c-2,0-3.5,0.8-4.3,2.3v11.6c0.8,1.5,2.2,2.3,4.3,2.3c2.1,0,3.5-1,4.1-3.1C64.4,32,64.5,30.2,64.5,27.7z"
		/>
	<path class="st3" d="M95,39.5c-1.9,2.4-4.5,3.7-7.8,3.7c-3.2,0-5.6-0.9-7.3-2.8c-1.6-1.8-2.5-4.5-2.5-8V13.4h9.1v19
		c0,2.5,1.2,3.7,3.7,3.7c2.1,0,3.6-0.8,4.5-2.2V13.4h9.1v29.2h-8.5L95,39.5z"/>
	<path class="st3" d="M117.1,13.4l0.3,3.4c2-2.6,4.8-4,8.3-4c3,0,5.3,0.9,6.8,2.7c1.5,1.8,2.3,4.5,2.3,8.2v18.8h-9.1V24.2
		c0-1.5-0.3-2.6-0.9-3.2c-0.6-0.7-1.7-1-3.3-1c-1.8,0-3.1,0.7-4,2.1v20.6h-9.1V13.4H117.1z"/>
	<path class="st3" d="M150.6,6.2v7.3h4.8v6.3h-4.8v13.4c0,1.1,0.2,1.8,0.6,2.3c0.4,0.4,1.2,0.6,2.4,0.6c0.9,0,1.6,0,2.2-0.2v6.5
		c-1.6,0.5-3.3,0.8-5.1,0.8c-3.1,0-5.5-0.7-6.9-2.2c-1.5-1.5-2.2-3.7-2.2-6.7V19.7h-3.7v-6.3h3.7V6.2H150.6z"/>
	<path class="st3" d="M176.3,39.5c-1.9,2.4-4.5,3.7-7.8,3.7c-3.2,0-5.6-0.9-7.3-2.8c-1.6-1.8-2.5-4.5-2.5-8V13.4h9.1v19
		c0,2.5,1.2,3.7,3.6,3.7c2.1,0,3.6-0.8,4.5-2.2V13.4h9.1v29.2h-8.5L176.3,39.5z"/>
	<path class="st3" d="M212.8,35.3h-13l-2.2,7.3h-10.1l14.4-39.3h8.9l14.5,39.3h-10.2L212.8,35.3z M202.1,27.9h8.5l-4.3-13.6
		L202.1,27.9z"/>
	<path class="st3" d="M227.7,5.9c0-1.3,0.5-2.4,1.4-3.2c0.9-0.8,2.2-1.2,3.7-1.2c1.5,0,2.7,0.4,3.7,1.2c0.9,0.8,1.4,1.9,1.4,3.2
		c0,1.3-0.5,2.4-1.4,3.2c-0.9,0.8-2.2,1.2-3.7,1.2c-1.5,0-2.7-0.4-3.7-1.2C228.1,8.2,227.7,7.2,227.7,5.9z M237.3,42.6h-9.1V13.4
		h9.1V42.6z"/>
	<path class="st3" d="M241.8,27.8c0-4.6,1-8.3,3-10.9s4.8-4,8.3-4c2.6,0,4.8,1,6.6,3.1V1.1h9.1v41.4h-8.2l-0.4-3.1
		c-1.9,2.4-4.3,3.7-7.1,3.7c-3.5,0-6.2-1.3-8.3-4C242.8,36.5,241.8,32.7,241.8,27.8z M250.9,28.3c0,5.2,1.5,7.8,4.5,7.8
		c2,0,3.5-0.8,4.3-2.5V22.5c-0.8-1.7-2.2-2.6-4.3-2.6c-2.8,0-4.3,2.2-4.6,6.8L250.9,28.3z"/>
	<path class="st3" d="M9.3,64.3v-12h4.2c1.4,0,2.6,0.3,3.3,0.8c0.8,0.6,1.1,1.4,1.1,2.4c0,0.6-0.2,1.1-0.4,1.6
		c-0.3,0.4-0.7,0.8-1.2,1c0.6,0.2,1.1,0.5,1.4,0.9c0.4,0.5,0.5,1,0.5,1.7c0,1.2-0.4,2-1.1,2.6c-0.7,0.6-1.8,0.9-3.2,0.9L9.3,64.3
		L9.3,64.3z M11.8,57.3h1.8c1.2,0,1.9-0.5,1.9-1.5c0-0.6-0.2-0.9-0.5-1.2c-0.3-0.2-0.8-0.4-1.5-0.4h-1.7L11.8,57.3L11.8,57.3z
		 M11.8,59.1v3.2h2.1c0.6,0,1-0.1,1.4-0.4c0.3-0.3,0.5-0.6,0.5-1.2c0-1.1-0.6-1.6-1.7-1.7H11.8z"/>
	<path class="st3" d="M25.7,57.6c-0.3,0-0.6-0.1-0.8-0.1c-0.9,0-1.5,0.3-1.8,0.9v5.8h-2.4v-8.9H23l0.1,1.1c0.5-0.8,1.1-1.2,2-1.2
		c0.3,0,0.5,0,0.7,0.1L25.7,57.6z"/>
	<path class="st3" d="M27.6,53.1c0-0.4,0.1-0.6,0.4-0.9c0.2-0.2,0.6-0.4,1-0.4c0.4,0,0.7,0.1,1,0.4c0.2,0.2,0.4,0.5,0.4,0.9
		c0,0.4-0.1,0.6-0.4,0.9c-0.2,0.2-0.6,0.4-1,0.4c-0.4,0-0.7-0.1-1-0.4C27.7,53.7,27.6,53.5,27.6,53.1z M30.1,64.3h-2.4v-8.9h2.4
		V64.3z"/>
	<path class="st3" d="M32.4,59.8c0-1.4,0.3-2.5,0.9-3.3c0.6-0.8,1.5-1.2,2.6-1.2c0.9,0,1.6,0.3,2.2,1v-4.5h2.4v12.7h-2.2l-0.1-1
		c-0.6,0.7-1.4,1.1-2.3,1.1c-1,0-1.9-0.4-2.5-1.2C32.8,62.4,32.4,61.3,32.4,59.8z M34.8,60c0,0.8,0.2,1.5,0.4,1.9s0.7,0.7,1.3,0.7
		c0.7,0,1.2-0.3,1.6-0.9v-3.5c-0.3-0.6-0.8-0.9-1.5-0.9C35.4,57.1,34.8,58.1,34.8,60z"/>
	<path class="st3" d="M42.7,59.8c0-1.4,0.3-2.5,1-3.3c0.6-0.8,1.5-1.2,2.6-1.2c1,0,1.7,0.3,2.3,1l0.1-0.8h2.2V64
		c0,0.8-0.2,1.4-0.5,2c-0.4,0.6-0.8,1-1.5,1.3c-0.6,0.3-1.4,0.4-2.2,0.4c-0.6,0-1.3-0.1-1.9-0.4c-0.6-0.3-1.1-0.6-1.4-1l1-1.4
		c0.6,0.7,1.3,1,2.2,1c0.6,0,1.1-0.2,1.5-0.5c0.4-0.3,0.5-0.8,0.5-1.4v-0.5c-0.6,0.6-1.3,0.9-2.2,0.9c-1.1,0-1.9-0.4-2.6-1.2
		c-0.7-0.8-1-2-1-3.3V59.8z M45.1,60c0,0.8,0.2,1.4,0.5,1.9c0.3,0.4,0.8,0.7,1.3,0.7c0.7,0,1.2-0.3,1.6-0.8v-3.8
		c-0.3-0.6-0.8-0.8-1.5-0.8c-0.6,0-1,0.2-1.4,0.7S45.1,59,45.1,60z"/>
	<path class="st3" d="M53.5,53.1c0-0.4,0.1-0.6,0.4-0.9c0.2-0.2,0.6-0.4,1-0.4c0.4,0,0.7,0.1,1,0.4s0.4,0.5,0.4,0.9
		c0,0.4-0.1,0.6-0.4,0.9c-0.2,0.2-0.6,0.4-1,0.4c-0.4,0-0.7-0.1-1-0.4C53.6,53.7,53.5,53.5,53.5,53.1z M56,64.3h-2.4v-8.9H56V64.3z"
		/>
	<path class="st3" d="M60.9,55.4l0.1,1c0.6-0.8,1.5-1.2,2.6-1.2c1,0,1.6,0.3,2.1,0.8c0.5,0.6,0.7,1.4,0.7,2.5v5.8H64v-5.7
		c0-0.5-0.1-0.9-0.3-1.1c-0.2-0.2-0.6-0.4-1.1-0.4c-0.7,0-1.2,0.3-1.5,0.8v6.3h-2.4v-8.9L60.9,55.4L60.9,55.4z"/>
	<path class="st3" d="M68.5,59.8c0-1.4,0.3-2.5,1-3.3c0.6-0.8,1.5-1.2,2.6-1.2c1,0,1.7,0.3,2.3,1l0.1-0.8h2.2V64
		c0,0.8-0.2,1.4-0.5,2c-0.4,0.6-0.8,1-1.5,1.3c-0.6,0.3-1.4,0.4-2.2,0.4c-0.6,0-1.3-0.1-1.9-0.4c-0.6-0.3-1.1-0.6-1.4-1l1-1.4
		c0.6,0.7,1.3,1,2.2,1c0.6,0,1.1-0.2,1.5-0.5c0.4-0.3,0.5-0.8,0.5-1.4v-0.5c-0.6,0.6-1.3,0.9-2.2,0.9c-1.1,0-1.9-0.4-2.6-1.2
		c-0.7-0.8-1-2-1-3.3V59.8z M70.9,60c0,0.8,0.2,1.4,0.5,1.9c0.3,0.4,0.8,0.7,1.3,0.7c0.7,0,1.2-0.3,1.6-0.8v-3.8
		c-0.3-0.6-0.8-0.8-1.5-0.8c-0.6,0-1,0.2-1.4,0.7S70.9,59,70.9,60z"/>
	<path class="st3" d="M94.1,64.3h-2.5v-5.1h-4.8v5.1h-2.5v-12h2.5v4.9h4.8v-4.9h2.5V64.3z"/>
	<path class="st3" d="M96.5,59.8c0-0.9,0.2-1.7,0.5-2.4c0.3-0.7,0.8-1.2,1.5-1.6c0.6-0.4,1.4-0.6,2.2-0.6c1.2,0,2.2,0.4,2.9,1.1
		c0.8,0.8,1.2,1.7,1.3,3V60c0,1.4-0.4,2.4-1.2,3.3c-0.8,0.8-1.8,1.2-3.1,1.2c-1.3,0-2.3-0.4-3.1-1.2c-0.8-0.8-1.2-1.9-1.2-3.4
		L96.5,59.8L96.5,59.8z M98.9,60c0,0.8,0.2,1.5,0.5,1.9c0.3,0.4,0.8,0.7,1.4,0.7c0.6,0,1-0.2,1.4-0.7c0.3-0.4,0.5-1.2,0.5-2.1
		c0-0.8-0.2-1.5-0.5-1.9c-0.3-0.4-0.8-0.7-1.4-0.7s-1,0.2-1.4,0.7C99.1,58.3,98.9,59,98.9,60z"/>
	<path class="st3" d="M115.2,60c0,1.4-0.3,2.5-0.9,3.3c-0.6,0.8-1.5,1.2-2.5,1.2c-0.9,0-1.6-0.3-2.2-0.9v4.2h-2.4V55.4h2.2l0.1,0.9
		c0.6-0.7,1.3-1,2.2-1c1.1,0,2,0.4,2.6,1.2c0.6,0.8,0.9,1.9,0.9,3.4L115.2,60L115.2,60z M112.8,59.8c0-0.8-0.2-1.5-0.4-1.9
		c-0.3-0.4-0.7-0.7-1.3-0.7c-0.8,0-1.2,0.3-1.5,0.8v3.7c0.3,0.6,0.8,0.9,1.6,0.9C112.3,62.6,112.8,61.6,112.8,59.8z"/>
	<path class="st3" d="M121.5,64.5c-1.3,0-2.4-0.4-3.2-1.2c-0.8-0.8-1.2-1.9-1.2-3.2v-0.2c0-0.9,0.2-1.7,0.5-2.4
		c0.4-0.7,0.8-1.2,1.5-1.6c0.6-0.4,1.4-0.6,2.2-0.6c1.2,0,2.2,0.4,2.9,1.2c0.7,0.8,1,1.8,1,3.3v1h-5.7c0.1,0.6,0.3,1,0.7,1.4
		c0.4,0.4,0.9,0.5,1.5,0.5c0.9,0,1.6-0.3,2.2-1l1.2,1.3c-0.4,0.5-0.8,0.9-1.4,1.2C122.9,64.3,122.3,64.5,121.5,64.5z M121.3,57.1
		c-0.5,0-0.8,0.2-1.2,0.5c-0.3,0.3-0.5,0.8-0.6,1.4h3.3v-0.2c0-0.5-0.2-0.9-0.4-1.2C122.1,57.2,121.8,57.1,121.3,57.1z"/>
	<path class="st3" d="M127.9,67.3l-1.2-0.6l0.3-0.5c0.4-0.7,0.6-1.3,0.6-2v-1.8h2V64c0,0.6-0.2,1.2-0.5,1.8
		C128.8,66.4,128.4,66.9,127.9,67.3z"/>
	<path class="st3" d="M137.3,64.3v-12h4.2c1.4,0,2.6,0.3,3.3,0.8c0.8,0.6,1.1,1.4,1.1,2.4c0,0.6-0.2,1.1-0.4,1.6
		c-0.3,0.4-0.7,0.8-1.2,1c0.6,0.2,1.1,0.5,1.4,0.9c0.4,0.5,0.5,1,0.5,1.7c0,1.2-0.4,2-1.1,2.6c-0.8,0.6-1.8,0.9-3.2,0.9L137.3,64.3
		L137.3,64.3z M139.8,57.3h1.8c1.2,0,1.9-0.5,1.9-1.5c0-0.6-0.2-0.9-0.5-1.2s-0.8-0.4-1.5-0.4h-1.7L139.8,57.3L139.8,57.3z
		 M139.8,59.1v3.2h2.1c0.6,0,1-0.1,1.4-0.4c0.3-0.3,0.5-0.6,0.5-1.2c0-1.1-0.6-1.6-1.7-1.7H139.8z"/>
	<path class="st3" d="M154,63.4c-0.6,0.7-1.4,1.1-2.4,1.1c-1,0-1.7-0.3-2.2-0.8c-0.5-0.6-0.8-1.4-0.8-2.4v-5.9h2.4v5.8
		c0,0.9,0.4,1.4,1.3,1.4c0.8,0,1.4-0.3,1.7-0.8v-6.3h2.4v8.9H154L154,63.4z"/>
	<path class="st3" d="M158.8,53.1c0-0.4,0.1-0.6,0.4-0.9c0.2-0.2,0.6-0.4,1-0.4c0.4,0,0.7,0.1,1,0.4c0.2,0.2,0.4,0.5,0.4,0.9
		c0,0.4-0.1,0.6-0.4,0.9c-0.2,0.2-0.6,0.4-1,0.4c-0.4,0-0.7-0.1-1-0.4C158.9,53.7,158.8,53.5,158.8,53.1z M161.3,64.3h-2.4v-8.9h2.4
		V64.3z"/>
	<path class="st3" d="M166.6,64.3h-2.4V51.7h2.4V64.3z"/>
	<path class="st3" d="M168.9,59.8c0-1.4,0.3-2.5,0.9-3.3c0.6-0.8,1.5-1.2,2.6-1.2c0.9,0,1.6,0.3,2.2,1v-4.5h2.4v12.7h-2.2l-0.1-1
		c-0.6,0.7-1.4,1.1-2.3,1.1c-1,0-1.9-0.4-2.5-1.2C169.2,62.4,168.9,61.3,168.9,59.8z M171.3,60c0,0.8,0.2,1.5,0.4,1.9
		c0.3,0.4,0.7,0.7,1.3,0.7c0.7,0,1.2-0.3,1.6-0.9v-3.5c-0.3-0.6-0.8-0.9-1.5-0.9C171.9,57.1,171.3,58.1,171.3,60z"/>
	<path class="st3" d="M179.5,53.1c0-0.4,0.1-0.6,0.4-0.9c0.2-0.2,0.6-0.4,1-0.4s0.7,0.1,1,0.4c0.2,0.2,0.4,0.5,0.4,0.9
		c0,0.4-0.1,0.6-0.4,0.9c-0.2,0.2-0.6,0.4-1,0.4s-0.7-0.1-1-0.4C179.6,53.7,179.5,53.5,179.5,53.1z M182,64.3h-2.4v-8.9h2.4V64.3z"
		/>
	<path class="st3" d="M186.9,55.4l0.1,1c0.6-0.8,1.5-1.2,2.6-1.2c1,0,1.6,0.3,2.1,0.8c0.5,0.6,0.7,1.4,0.7,2.5v5.8h-2.4v-5.7
		c0-0.5-0.1-0.9-0.3-1.1c-0.2-0.2-0.6-0.4-1.1-0.4c-0.7,0-1.2,0.3-1.5,0.8v6.3h-2.4v-8.9L186.9,55.4L186.9,55.4z"/>
	<path class="st3" d="M194.6,59.8c0-1.4,0.3-2.5,1-3.3c0.6-0.8,1.5-1.2,2.6-1.2c1,0,1.7,0.3,2.3,1l0.1-0.8h2.2V64
		c0,0.8-0.2,1.4-0.5,2c-0.4,0.6-0.8,1-1.5,1.3c-0.6,0.3-1.4,0.4-2.2,0.4c-0.6,0-1.3-0.1-1.9-0.4c-0.6-0.3-1.1-0.6-1.4-1l1-1.4
		c0.6,0.7,1.3,1,2.2,1c0.6,0,1.1-0.2,1.5-0.5c0.4-0.3,0.5-0.8,0.5-1.4v-0.5c-0.6,0.6-1.3,0.9-2.2,0.9c-1.1,0-1.9-0.4-2.6-1.2
		c-0.7-0.8-1-2-1-3.3V59.8z M197,60c0,0.8,0.2,1.4,0.5,1.9c0.3,0.4,0.8,0.7,1.3,0.7c0.7,0,1.2-0.3,1.6-0.8v-3.8
		c-0.3-0.6-0.8-0.8-1.5-0.8c-0.6,0-1,0.2-1.4,0.7C197.1,58.4,197,59,197,60z"/>
	<path class="st3" d="M217.6,59.4h-4.7v4.9h-2.5v-12h7.8v2h-5.3v3.1h4.7V59.4z"/>
	<path class="st3" d="M225.4,63.4c-0.6,0.7-1.4,1.1-2.4,1.1c-1,0-1.7-0.3-2.2-0.8c-0.5-0.6-0.8-1.4-0.8-2.4v-5.9h2.4v5.8
		c0,0.9,0.4,1.4,1.3,1.4c0.8,0,1.4-0.3,1.7-0.8v-6.3h2.4v8.9h-2.2L225.4,63.4z"/>
	<path class="st3" d="M233.1,53.2v2.2h1.5v1.8h-1.5v4.5c0,0.3,0.1,0.6,0.2,0.7s0.4,0.2,0.7,0.2c0.3,0,0.5,0,0.7,0v1.8
		c-0.5,0.2-1,0.2-1.4,0.2c-1.7,0-2.5-0.8-2.6-2.5v-4.8h-1.3v-1.8h1.3v-2.2H233.1z"/>
	<path class="st3" d="M242.1,63.4c-0.6,0.7-1.4,1.1-2.4,1.1c-1,0-1.7-0.3-2.2-0.8c-0.5-0.6-0.8-1.4-0.8-2.4v-5.9h2.4v5.8
		c0,0.9,0.4,1.4,1.3,1.4c0.8,0,1.4-0.3,1.7-0.8v-6.3h2.4v8.9h-2.2L242.1,63.4z"/>
	<path class="st3" d="M251.9,57.6c-0.3,0-0.6-0.1-0.8-0.1c-0.9,0-1.5,0.3-1.8,0.9v5.8H247v-8.9h2.2l0.1,1.1c0.5-0.8,1.1-1.2,2-1.2
		c0.3,0,0.5,0,0.7,0.1L251.9,57.6z"/>
	<path class="st3" d="M257.8,64.5c-1.3,0-2.4-0.4-3.2-1.2c-0.8-0.8-1.2-1.9-1.2-3.2v-0.2c0-0.9,0.2-1.7,0.5-2.4
		c0.4-0.7,0.8-1.2,1.5-1.6c0.6-0.4,1.4-0.6,2.2-0.6c1.2,0,2.2,0.4,2.9,1.2c0.7,0.8,1,1.8,1,3.3v1h-5.7c0.1,0.6,0.3,1,0.7,1.4
		c0.4,0.4,0.9,0.5,1.5,0.5c0.9,0,1.6-0.3,2.2-1l1.2,1.3c-0.4,0.5-0.8,0.9-1.4,1.2C259.2,64.3,258.5,64.5,257.8,64.5z M257.5,57.1
		c-0.5,0-0.8,0.2-1.2,0.5c-0.3,0.3-0.5,0.8-0.6,1.4h3.3v-0.2c0-0.5-0.2-0.9-0.4-1.2C258.4,57.3,258,57.1,257.5,57.1z"/>
	<path class="st3" d="M268.3,61.8c0-0.3-0.2-0.5-0.4-0.7c-0.3-0.2-0.8-0.3-1.4-0.4c-2.1-0.4-3.2-1.4-3.2-2.7c0-0.8,0.3-1.4,1-2
		c0.6-0.5,1.5-0.8,2.6-0.8c1.1,0,2,0.3,2.7,0.8c0.7,0.5,1,1.2,1,2.1h-2.4c0-0.3-0.1-0.6-0.3-0.8c-0.2-0.2-0.6-0.3-1-0.3
		c-0.4,0-0.7,0.1-0.9,0.3c-0.2,0.2-0.3,0.4-0.3,0.7c0,0.3,0.1,0.5,0.4,0.6c0.2,0.2,0.7,0.3,1.3,0.4c0.6,0.1,1.1,0.2,1.5,0.4
		c1.2,0.5,1.9,1.2,1.9,2.4c0,0.8-0.4,1.5-1,2c-0.7,0.5-1.6,0.8-2.7,0.8c-0.8,0-1.4-0.1-2-0.4c-0.6-0.3-1-0.6-1.4-1.1
		c-0.3-0.5-0.5-1-0.5-1.5h2.2c0,0.4,0.2,0.8,0.5,1c0.3,0.2,0.7,0.3,1.2,0.3c0.4,0,0.8-0.1,1-0.2C268.3,62.4,268.3,62.1,268.3,61.8z"
		/>
</g>
</svg>
