<svg width="25" height="24" viewBox="0 0 25 24" fill="none" xmlns="http://www.w3.org/2000/svg">
<path d="M23.3919 0C24.1259 0 24.7199 0.594 24.7199 1.328V22.672C24.7199 23.406 24.1259 24 23.3919 24H17.2829V14.703H20.3919L20.8609 11.078H17.2829V8.766C17.2829 7.719 17.5639 7.016 19.0799 7.016L20.9859 7V3.766C20.6579 3.719 19.5169 3.625 18.2049 3.625C15.4389 3.625 13.5329 5.312 13.5329 8.406V11.078H10.4079V14.703H13.5329V24H2.04895C1.31495 24 0.720947 23.406 0.720947 22.672V1.328C0.720947 0.594 1.31495 0 2.04895 0H23.3919Z" fill="white"/>
</svg>
