<svg width="280" height="69" viewBox="0 0 280 69" fill="none" xmlns="http://www.w3.org/2000/svg">
<g clip-path="url(#clip0_184_1238)">
<g clip-path="url(#clip1_184_1238)">
<g clip-path="url(#clip2_184_1238)">
<g clip-path="url(#clip3_184_1238)">
<path d="M36.7749 4.63731V30.3541C36.7749 33.2828 36.1731 35.8104 34.9294 37.9367C33.6856 40.0631 31.9204 41.708 29.5934 42.7912C27.2665 43.9146 24.5383 44.4762 21.3689 44.4762C16.5946 44.4762 12.8234 43.2325 10.0551 40.7451C7.28684 38.2577 5.88265 34.8475 5.84253 30.5547V4.63731H15.3509V30.7152C15.4713 35.008 17.4371 37.1744 21.3288 37.1744C23.2946 37.1744 24.7791 36.6529 25.782 35.5696C26.785 34.4864 27.3066 32.7211 27.3066 30.314V4.63731H36.7749Z" fill="#0A72BA"/>
<path d="M69.3521 29.5918C69.3521 34.3661 68.3492 38.0571 66.3833 40.6248C64.4174 43.1924 61.609 44.4762 58.0384 44.4762C55.0695 44.4762 52.6623 43.3128 50.8569 40.9457L50.4959 43.9547H42.3516V2.47084H51.4587V17.0744C53.1438 15.1487 55.3504 14.1858 57.9983 14.1858C61.6492 14.1858 64.4575 15.5098 66.4234 18.1176C68.3893 20.7253 69.3923 24.3762 69.3923 29.1104V29.5918H69.3521ZM60.245 28.99C60.245 26.1816 59.8839 24.1756 59.1216 23.0122C58.3593 21.8086 57.236 21.2068 55.6713 21.2068C53.6252 21.2068 52.1809 21.9691 51.4186 23.5337V35.1283C52.1809 36.6529 53.6252 37.4553 55.7516 37.4553C57.8779 37.4553 59.242 36.4122 59.8438 34.3259C60.1246 33.3229 60.245 31.5176 60.245 28.99Z" fill="#0A72BA"/>
<path d="M90.776 40.7852C88.8502 43.2325 86.2424 44.4762 82.9927 44.4762C79.7832 44.4762 77.376 43.5535 75.7311 41.6678C74.0862 39.8223 73.2437 37.1343 73.2437 33.6439V14.7475H82.3508V33.7241C82.3508 36.2116 83.5544 37.4553 86.0017 37.4553C88.088 37.4553 89.5724 36.693 90.455 35.2086V14.7475H99.6023V43.9145H91.0568L90.776 40.7852Z" fill="#0A72BA"/>
<path d="M112.882 14.7475L113.163 18.1577C115.169 15.5098 117.937 14.1858 121.508 14.1858C124.557 14.1858 126.803 15.1086 128.328 16.9139C129.812 18.7193 130.615 21.4475 130.655 25.0984V43.9145H121.548V25.4996C121.548 24.0151 121.267 22.9319 120.665 22.2499C120.063 21.5678 118.98 21.2068 117.415 21.2068C115.65 21.2068 114.326 21.8888 113.444 23.293V43.9145H104.336V14.7475H112.882Z" fill="#0A72BA"/>
<path d="M146.302 7.48581V14.7475H151.116V21.0463H146.302V34.4062C146.302 35.4894 146.502 36.2517 146.903 36.693C147.305 37.1343 148.067 37.3349 149.271 37.3349C150.153 37.3349 150.915 37.2948 151.517 37.1744V43.6738C149.872 44.1954 148.187 44.4762 146.382 44.4762C143.253 44.4762 140.926 43.7541 139.441 42.2696C137.957 40.7852 137.195 38.5385 137.195 35.5696V21.0463H133.463V14.7475H137.195V7.48581H146.302Z" fill="#0A72BA"/>
<path d="M172.059 40.7852C170.133 43.2325 167.525 44.4762 164.275 44.4762C161.066 44.4762 158.659 43.5535 157.014 41.6678C155.369 39.8223 154.526 37.1343 154.526 33.6439V14.7475H163.634V33.7241C163.634 36.2116 164.837 37.4553 167.284 37.4553C169.371 37.4553 170.855 36.693 171.738 35.2086V14.7475H180.885V43.9145H172.34L172.059 40.7852Z" fill="#0A72BA"/>
<path d="M208.568 36.6128H195.609L193.362 43.9547H183.252L197.655 4.67743H206.562L221.085 43.9547H210.894L208.568 36.6128ZM197.856 29.2708H206.321L202.068 15.6301L197.856 29.2708Z" fill="#6AA84D"/>
<path d="M223.412 7.20497C223.412 5.92114 223.893 4.83791 224.816 4.03551C225.739 3.193 226.983 2.7918 228.467 2.7918C229.951 2.7918 231.155 3.193 232.118 4.03551C233.041 4.87803 233.522 5.92114 233.522 7.20497C233.522 8.48881 233.041 9.57204 232.118 10.3744C231.195 11.217 229.951 11.6181 228.467 11.6181C226.983 11.6181 225.779 11.217 224.816 10.3744C223.893 9.57204 223.412 8.48881 223.412 7.20497ZM233.081 43.9146H223.974V14.7475H233.081V43.9146Z" fill="#6AA84D"/>
<path d="M237.534 29.1104C237.534 24.4966 238.537 20.8457 240.543 18.1978C242.549 15.5499 245.317 14.1858 248.888 14.1858C251.496 14.1858 253.702 15.2289 255.467 17.275V2.47084H264.575V43.9145H256.39L255.949 40.7852C254.063 43.2325 251.696 44.4361 248.808 44.4361C245.317 44.4361 242.589 43.1122 240.543 40.4241C238.537 37.8163 237.534 34.0451 237.534 29.1104ZM246.601 29.672C246.601 34.8475 248.126 37.4553 251.135 37.4553C253.141 37.4553 254.585 36.6127 255.467 34.9277V23.8146C254.625 22.0894 253.221 21.2068 251.215 21.2068C248.406 21.2068 246.882 23.4535 246.641 27.987L246.601 29.672Z" fill="#6AA84D"/>
<path d="M5.08032 65.6595V53.6637H9.2929C10.7372 53.6637 11.8606 53.9445 12.6228 54.5062C13.3851 55.0678 13.7462 55.8702 13.7462 56.9535C13.7462 57.5553 13.5857 58.0768 13.3049 58.5181C12.9839 58.9595 12.5827 59.2804 12.0612 59.5211C12.663 59.6816 13.1444 60.0026 13.5055 60.4439C13.8665 60.9253 14.027 61.487 14.027 62.169C14.027 63.3325 13.6659 64.2151 12.9037 64.7768C12.1815 65.3786 11.0983 65.6595 9.73422 65.6996H5.08032V65.6595ZM7.56775 58.6786H9.41326C10.657 58.6385 11.2989 58.1571 11.2989 57.1942C11.2989 56.6325 11.1384 56.2714 10.8174 56.0307C10.4965 55.79 10.0151 55.6696 9.33302 55.6696H7.60787V58.6786H7.56775ZM7.56775 60.4038V63.6535H9.69409C10.2959 63.6535 10.7372 63.5331 11.0582 63.2523C11.3791 62.9714 11.5396 62.6104 11.5396 62.0888C11.5396 61.0056 10.9779 60.4439 9.81445 60.4038H7.56775Z" fill="#0A72BA"/>
<path d="M21.4893 58.9595C21.1683 58.9193 20.8875 58.8792 20.6467 58.8792C19.7641 58.8792 19.1623 59.2002 18.8815 59.802V65.6193H16.5144V56.7128H18.7611L18.8414 57.796C19.3228 56.9936 19.9647 56.5523 20.8473 56.5523C21.1282 56.5523 21.3689 56.5924 21.5695 56.6726L21.4893 58.9595Z" fill="#0A72BA"/>
<path d="M23.3347 54.4259C23.3347 54.0649 23.4551 53.784 23.6958 53.5433C23.9365 53.3026 24.2575 53.1822 24.6587 53.1822C25.0599 53.1822 25.3808 53.3026 25.6215 53.5433C25.8623 53.784 25.9826 54.0649 25.9826 54.4259C25.9826 54.787 25.8623 55.0678 25.6215 55.3086C25.3808 55.5493 25.0599 55.6696 24.6587 55.6696C24.2575 55.6696 23.9365 55.5493 23.6958 55.3086C23.4551 55.0678 23.3347 54.787 23.3347 54.4259ZM25.8623 65.6595H23.4551V56.7529H25.8623V65.6595Z" fill="#0A72BA"/>
<path d="M28.1892 61.1259C28.1892 59.7217 28.5102 58.6385 29.112 57.796C29.7539 56.9535 30.5964 56.5523 31.6796 56.5523C32.5623 56.5523 33.2844 56.8732 33.8461 57.5152V52.9816H36.2533V65.6595H34.0868L33.9665 64.6966C33.3647 65.4188 32.6024 65.82 31.6796 65.82C30.6365 65.82 29.794 65.4188 29.1521 64.5762C28.5102 63.7337 28.1892 62.6104 28.1892 61.1259ZM30.5964 61.2864C30.5964 62.1289 30.7569 62.7709 31.0377 63.2122C31.3185 63.6535 31.7599 63.8942 32.3215 63.8942C33.0437 63.8942 33.5653 63.5732 33.8862 62.9714V59.4409C33.6054 58.799 33.0838 58.5182 32.3617 58.5182C31.1581 58.478 30.5964 59.4409 30.5964 61.2864Z" fill="#0A72BA"/>
<path d="M38.5 61.1259C38.5 59.7619 38.821 58.6385 39.4629 57.8361C40.1048 56.9936 40.9874 56.5924 42.1108 56.5924C43.0737 56.5924 43.8359 56.9134 44.3976 57.5954L44.4778 56.7529H46.6443V65.3786C46.6443 66.1409 46.4838 66.8229 46.1228 67.4247C45.7617 67.9864 45.2802 68.4277 44.6383 68.7487C43.9964 69.0696 43.2341 69.19 42.3916 69.19C41.7497 69.19 41.1078 69.0696 40.4659 68.7888C39.8641 68.508 39.3826 68.187 39.0617 67.7858L40.1048 66.3415C40.7066 67.0235 41.4287 67.3445 42.2713 67.3445C42.9132 67.3445 43.3946 67.184 43.7557 66.8229C44.1168 66.502 44.2772 66.0205 44.2772 65.3786V64.8972C43.7156 65.499 42.9934 65.82 42.1108 65.82C41.0275 65.82 40.185 65.4188 39.503 64.5762C38.821 63.7337 38.5 62.6104 38.5 61.2463V61.1259ZM40.8671 61.2864C40.8671 62.0888 41.0275 62.7307 41.3485 63.172C41.6695 63.6134 42.1108 63.8541 42.6725 63.8541C43.3946 63.8541 43.9162 63.5732 44.2371 63.0517V59.2804C43.9162 58.7188 43.3946 58.478 42.7126 58.478C42.1509 58.478 41.7096 58.7188 41.3485 59.2002C40.9874 59.6816 40.8671 60.3637 40.8671 61.2864Z" fill="#0A72BA"/>
<path d="M49.2122 54.4259C49.2122 54.0649 49.3325 53.784 49.5732 53.5433C49.814 53.3026 50.1349 53.1822 50.5361 53.1822C50.9373 53.1822 51.2583 53.3026 51.499 53.5433C51.7397 53.784 51.8601 54.0649 51.8601 54.4259C51.8601 54.787 51.7397 55.0678 51.499 55.3086C51.2583 55.5493 50.9373 55.6696 50.5361 55.6696C50.1349 55.6696 49.814 55.5493 49.5732 55.3086C49.3325 55.0678 49.2122 54.787 49.2122 54.4259ZM51.7397 65.6595H49.3325V56.7529H51.7397V65.6595Z" fill="#0A72BA"/>
<path d="M56.6342 56.7128L56.7145 57.7559C57.3564 56.9535 58.1989 56.5523 59.2821 56.5523C60.245 56.5523 60.9271 56.8331 61.4085 57.3948C61.8899 57.9565 62.0905 58.799 62.1306 59.8822V65.6595H59.7636V59.9625C59.7636 59.4409 59.6432 59.0798 59.4426 58.8792C59.242 58.6385 58.8408 58.5181 58.3594 58.5181C57.6774 58.5181 57.1959 58.799 56.8348 59.3607V65.6595H54.4678V56.7529H56.6342V56.7128Z" fill="#0A72BA"/>
<path d="M64.2971 61.1259C64.2971 59.7619 64.6181 58.6385 65.26 57.8361C65.9019 56.9936 66.7845 56.5924 67.9079 56.5924C68.8708 56.5924 69.633 56.9134 70.1947 57.5954L70.275 56.7529H72.4414V65.3786C72.4414 66.1409 72.281 66.8229 71.9199 67.4247C71.5588 67.9864 71.0774 68.4277 70.4354 68.7487C69.7935 69.0696 69.0312 69.19 68.1887 69.19C67.5468 69.19 66.9049 69.0696 66.263 68.7888C65.6612 68.508 65.1798 68.187 64.8588 67.7858L65.9019 66.3415C66.5037 67.0235 67.2259 67.3445 68.0684 67.3445C68.7103 67.3445 69.1917 67.184 69.5528 66.8229C69.9139 66.502 70.0744 66.0205 70.0744 65.3786V64.8972C69.5127 65.499 68.7905 65.82 67.9079 65.82C66.8247 65.82 65.9821 65.4188 65.3001 64.5762C64.6181 63.7337 64.2971 62.6104 64.2971 61.2463V61.1259ZM66.6642 61.2864C66.6642 62.0888 66.8247 62.7307 67.1456 63.172C67.4666 63.6134 67.9079 63.8541 68.4696 63.8541C69.1917 63.8541 69.7133 63.5732 70.0342 63.0517V59.2804C69.7133 58.7188 69.1917 58.478 68.5097 58.478C67.948 58.478 67.5067 58.7188 67.1456 59.2002C66.7845 59.6816 66.6642 60.3637 66.6642 61.2864Z" fill="#0A72BA"/>
<path d="M89.8935 65.6595H87.406V60.5241H82.5917V65.6595H80.1042V53.6637H82.5917V58.5181H87.406V53.6637H89.8935V65.6595Z" fill="#0A72BA"/>
<path d="M92.2606 61.0858C92.2606 60.2032 92.4211 59.4008 92.7821 58.7187C93.1031 58.0367 93.6247 57.475 94.2666 57.114C94.9085 56.7529 95.6306 56.5523 96.5133 56.5523C97.7169 56.5523 98.6797 56.9134 99.442 57.6756C100.204 58.4379 100.646 59.4008 100.726 60.6846V61.2864C100.726 62.6505 100.325 63.7337 99.5624 64.5762C98.8001 65.4187 97.757 65.8199 96.4732 65.8199C95.1893 65.8199 94.1462 65.4187 93.3839 64.5762C92.6217 63.7337 92.2205 62.6505 92.2205 61.2062V61.0858H92.2606ZM94.6678 61.2864C94.6678 62.1289 94.8283 62.7708 95.1492 63.2122C95.4702 63.6535 95.9115 63.8942 96.5133 63.8942C97.075 63.8942 97.5564 63.6535 97.8773 63.2122C98.1983 62.7708 98.3588 62.0487 98.3588 61.0858C98.3588 60.2433 98.1983 59.6014 97.8773 59.1601C97.5564 58.7187 97.1151 58.478 96.5133 58.478C95.9115 58.478 95.4702 58.7187 95.1492 59.1601C94.8283 59.6014 94.6678 60.3235 94.6678 61.2864Z" fill="#0A72BA"/>
<path d="M110.956 61.2864C110.956 62.6505 110.635 63.7738 110.033 64.5762C109.392 65.4188 108.549 65.82 107.506 65.82C106.623 65.82 105.861 65.499 105.339 64.8972V69.1098H102.972V56.7529H105.179L105.259 57.6355C105.821 56.9535 106.583 56.5924 107.506 56.5924C108.589 56.5924 109.472 56.9936 110.074 57.796C110.675 58.5984 110.996 59.7217 110.996 61.1661V61.2864H110.956ZM108.589 61.0858C108.589 60.2433 108.429 59.6014 108.148 59.1601C107.867 58.7188 107.426 58.478 106.864 58.478C106.102 58.478 105.62 58.7589 105.339 59.3205V62.9714C105.62 63.5732 106.142 63.8541 106.904 63.8541C108.027 63.8942 108.589 62.9714 108.589 61.0858Z" fill="#0A72BA"/>
<path d="M117.295 65.8199C115.971 65.8199 114.928 65.4187 114.086 64.6164C113.283 63.814 112.842 62.7307 112.842 61.4068V61.166C112.842 60.2834 113.003 59.481 113.364 58.7589C113.725 58.0367 114.206 57.5151 114.848 57.114C115.49 56.7128 116.212 56.5523 117.015 56.5523C118.218 56.5523 119.181 56.9535 119.903 57.7157C120.585 58.478 120.946 59.5613 120.946 61.0056V61.9684H115.249C115.329 62.5702 115.57 63.0116 115.931 63.3726C116.292 63.7337 116.814 63.8942 117.416 63.8942C118.338 63.8942 119.061 63.5732 119.582 62.8912L120.746 64.2152C120.385 64.7367 119.903 65.0978 119.301 65.3786C118.7 65.6595 118.017 65.8199 117.295 65.8199ZM117.015 58.478C116.533 58.478 116.172 58.6385 115.851 58.9595C115.57 59.2804 115.37 59.7217 115.289 60.3235H118.619V60.1229C118.619 59.6014 118.459 59.2002 118.178 58.8792C117.897 58.5583 117.536 58.478 117.015 58.478Z" fill="#0A72BA"/>
<path d="M123.674 68.6684L122.431 68.0265L122.711 67.505C123.073 66.8229 123.273 66.181 123.273 65.499V63.6535H125.279V65.2984C125.279 65.9002 125.119 66.5421 124.798 67.1439C124.517 67.7457 124.156 68.2672 123.674 68.6684Z" fill="#0A72BA"/>
<path d="M133.022 65.6595V53.6637H137.235C138.679 53.6637 139.802 53.9445 140.565 54.5062C141.327 55.0678 141.688 55.8702 141.688 56.9535C141.688 57.5553 141.528 58.0768 141.247 58.5181C140.926 58.9595 140.525 59.2804 140.003 59.5211C140.605 59.6816 141.086 60.0026 141.447 60.4439C141.808 60.9253 141.969 61.487 141.969 62.169C141.969 63.3325 141.608 64.2151 140.846 64.7768C140.083 65.3385 139.04 65.6595 137.676 65.6996H133.022V65.6595ZM135.51 58.6786H137.355C138.599 58.6385 139.241 58.1571 139.241 57.1942C139.241 56.6325 139.08 56.2714 138.759 56.0307C138.438 55.79 137.957 55.6696 137.275 55.6696H135.55V58.6786H135.51ZM135.51 60.4038V63.6535H137.636C138.238 63.6535 138.679 63.5331 139 63.2523C139.321 62.9714 139.481 62.6104 139.481 62.0888C139.481 61.0056 138.92 60.4439 137.756 60.4038H135.51Z" fill="#6AA84D"/>
<path d="M149.712 64.7367C149.11 65.4589 148.308 65.8199 147.265 65.8199C146.302 65.8199 145.58 65.5391 145.058 64.9774C144.537 64.4157 144.296 63.6134 144.296 62.5702V56.7128H146.663V62.49C146.663 63.4128 147.104 63.8942 147.947 63.8942C148.749 63.8942 149.311 63.6134 149.632 63.0517V56.7128H152.039V65.6193H149.792L149.712 64.7367Z" fill="#6AA84D"/>
<path d="M154.566 54.4259C154.566 54.0649 154.687 53.784 154.927 53.5433C155.168 53.3026 155.489 53.1822 155.89 53.1822C156.292 53.1822 156.613 53.3026 156.853 53.5433C157.094 53.784 157.214 54.0649 157.214 54.4259C157.214 54.787 157.094 55.0678 156.853 55.3086C156.613 55.5493 156.292 55.6696 155.89 55.6696C155.489 55.6696 155.168 55.5493 154.927 55.3086C154.687 55.0678 154.566 54.787 154.566 54.4259ZM157.094 65.6595H154.687V56.7529H157.094V65.6595Z" fill="#6AA84D"/>
<path d="M162.31 65.6595H159.902V52.9816H162.31V65.6595Z" fill="#6AA84D"/>
<path d="M164.636 61.1259C164.636 59.7217 164.957 58.6385 165.559 57.796C166.201 56.9535 167.044 56.5523 168.127 56.5523C169.01 56.5523 169.732 56.8732 170.293 57.5152V52.9816H172.701V65.6595H170.534L170.414 64.6966C169.812 65.4188 169.05 65.82 168.127 65.82C167.084 65.82 166.241 65.4188 165.599 64.5762C164.957 63.7337 164.636 62.6104 164.636 61.1259ZM167.004 61.2864C167.004 62.1289 167.164 62.7709 167.445 63.2122C167.726 63.6535 168.167 63.8942 168.729 63.8942C169.451 63.8942 169.972 63.5732 170.293 62.9714V59.4409C170.013 58.799 169.491 58.5182 168.769 58.5182C167.605 58.478 167.004 59.4409 167.004 61.2864Z" fill="#6AA84D"/>
<path d="M175.268 54.4259C175.268 54.0649 175.389 53.784 175.629 53.5433C175.87 53.3026 176.191 53.1822 176.592 53.1822C176.993 53.1822 177.314 53.3026 177.555 53.5433C177.796 53.784 177.916 54.0649 177.916 54.4259C177.916 54.787 177.796 55.0678 177.555 55.3086C177.314 55.5493 176.993 55.6696 176.592 55.6696C176.191 55.6696 175.87 55.5493 175.629 55.3086C175.389 55.0678 175.268 54.787 175.268 54.4259ZM177.796 65.6595H175.389V56.7529H177.796V65.6595Z" fill="#6AA84D"/>
<path d="M182.69 56.7128L182.771 57.7559C183.413 56.9535 184.255 56.5523 185.338 56.5523C186.301 56.5523 186.983 56.8331 187.465 57.3948C187.946 57.9565 188.147 58.799 188.187 59.8822V65.6595H185.82V59.9625C185.82 59.4409 185.699 59.0798 185.499 58.8792C185.298 58.6786 184.897 58.5181 184.416 58.5181C183.734 58.5181 183.252 58.799 182.891 59.3607V65.6595H180.524V56.7529H182.69V56.7128Z" fill="#6AA84D"/>
<path d="M190.353 61.1259C190.353 59.7619 190.674 58.6385 191.316 57.8361C191.958 56.9936 192.841 56.5924 193.964 56.5924C194.927 56.5924 195.689 56.9134 196.251 57.5954L196.331 56.7529H198.498V65.3786C198.498 66.1409 198.337 66.8229 197.976 67.4247C197.615 68.0265 197.134 68.4277 196.492 68.7487C195.85 69.0696 195.087 69.19 194.245 69.19C193.603 69.19 192.961 69.0696 192.319 68.7888C191.717 68.508 191.236 68.187 190.915 67.7858L191.958 66.3415C192.56 67.0235 193.282 67.3445 194.125 67.3445C194.766 67.3445 195.248 67.184 195.609 66.8229C195.97 66.502 196.131 66.0205 196.131 65.3786V64.8972C195.569 65.499 194.847 65.82 193.964 65.82C192.881 65.82 192.038 65.4188 191.356 64.5762C190.674 63.7337 190.353 62.6104 190.353 61.2463V61.1259ZM192.72 61.2864C192.72 62.0888 192.881 62.7307 193.202 63.172C193.523 63.6134 193.964 63.8541 194.526 63.8541C195.248 63.8541 195.769 63.5732 196.09 63.0517V59.2804C195.769 58.7188 195.248 58.478 194.566 58.478C194.004 58.478 193.563 58.7188 193.202 59.2002C192.881 59.6816 192.72 60.3637 192.72 61.2864Z" fill="#6AA84D"/>
<path d="M213.382 60.7247H208.648V65.6193H206.16V53.6235H213.984V55.6295H208.648V58.7187H213.382V60.7247Z" fill="#6AA84D"/>
<path d="M221.165 64.7367C220.563 65.4589 219.761 65.8199 218.718 65.8199C217.755 65.8199 217.033 65.5391 216.511 64.9774C215.99 64.4157 215.749 63.6134 215.749 62.5702V56.7128H218.116V62.49C218.116 63.4128 218.557 63.8942 219.4 63.8942C220.202 63.8942 220.764 63.6134 221.085 63.0517V56.7128H223.492V65.6193H221.245L221.165 64.7367Z" fill="#6AA84D"/>
<path d="M228.868 54.5463V56.7529H230.393V58.5181H228.868V62.9714C228.868 63.2924 228.949 63.5331 229.069 63.6936C229.189 63.8541 229.43 63.8942 229.791 63.8942C230.072 63.8942 230.272 63.8942 230.473 63.8541V65.6595C229.992 65.8199 229.51 65.8601 229.029 65.8601C227.344 65.8601 226.501 65.0176 226.461 63.3325V58.5181H225.177V56.7529H226.461V54.5463H228.868Z" fill="#6AA84D"/>
<path d="M237.815 64.7367C237.213 65.4589 236.411 65.8199 235.368 65.8199C234.405 65.8199 233.683 65.5391 233.161 64.9774C232.64 64.4157 232.399 63.6134 232.399 62.5702V56.7128H234.766V62.49C234.766 63.4128 235.207 63.8942 236.05 63.8942C236.852 63.8942 237.414 63.6134 237.735 63.0517V56.7128H240.142V65.6193H237.895L237.815 64.7367Z" fill="#6AA84D"/>
<path d="M247.684 58.9595C247.363 58.9193 247.083 58.8792 246.842 58.8792C245.959 58.8792 245.357 59.2002 245.077 59.802V65.6193H242.709V56.7128H244.956L245.036 57.796C245.518 56.9936 246.16 56.5523 247.042 56.5523C247.323 56.5523 247.564 56.5924 247.765 56.6726L247.684 58.9595Z" fill="#6AA84D"/>
<path d="M253.502 65.8199C252.178 65.8199 251.135 65.4187 250.292 64.6164C249.49 63.814 249.049 62.7307 249.049 61.4068V61.166C249.049 60.2834 249.209 59.481 249.57 58.7589C249.931 58.0367 250.413 57.5151 251.055 57.114C251.696 56.7128 252.419 56.5523 253.221 56.5523C254.425 56.5523 255.388 56.9535 256.11 57.7157C256.792 58.478 257.153 59.5613 257.153 61.0056V61.9684H251.456C251.536 62.5702 251.777 63.0116 252.138 63.3726C252.499 63.7337 253.02 63.8942 253.622 63.8942C254.545 63.8942 255.267 63.5732 255.789 62.8912L256.952 64.2152C256.591 64.7367 256.11 65.0978 255.508 65.3786C254.946 65.6595 254.264 65.8199 253.502 65.8199ZM253.221 58.478C252.74 58.478 252.379 58.6385 252.058 58.9595C251.777 59.2804 251.576 59.7217 251.496 60.3235H254.826V60.1229C254.826 59.6014 254.665 59.2002 254.385 58.8792C254.144 58.6385 253.743 58.478 253.221 58.478Z" fill="#6AA84D"/>
<path d="M264.093 63.172C264.093 62.8912 263.933 62.6505 263.652 62.49C263.371 62.3295 262.89 62.1691 262.248 62.0487C260.121 61.6074 259.078 60.6846 259.078 59.3607C259.078 58.5583 259.399 57.9164 260.081 57.3948C260.723 56.8732 261.606 56.5924 262.649 56.5924C263.772 56.5924 264.695 56.8732 265.377 57.3948C266.059 57.9164 266.38 58.6385 266.38 59.481H264.013C264.013 59.1601 263.893 58.8391 263.692 58.6385C263.492 58.4379 263.13 58.3176 262.649 58.3176C262.248 58.3176 261.927 58.3978 261.726 58.5984C261.526 58.799 261.405 58.9996 261.405 59.2804C261.405 59.5613 261.526 59.7619 261.766 59.9223C262.007 60.0828 262.448 60.2433 263.05 60.3235C263.652 60.4439 264.133 60.5643 264.535 60.7247C265.778 61.2062 266.42 61.9685 266.42 63.1319C266.42 63.9343 266.059 64.6164 265.377 65.0978C264.695 65.6194 263.772 65.8601 262.689 65.8601C261.927 65.8601 261.285 65.7397 260.683 65.4589C260.121 65.178 259.64 64.817 259.319 64.3756C258.998 63.8942 258.838 63.4128 258.838 62.8511H261.084C261.124 63.2924 261.245 63.6134 261.566 63.814C261.847 64.0547 262.248 64.1349 262.729 64.1349C263.171 64.1349 263.532 64.0547 263.772 63.8942C264.013 63.7337 264.093 63.4529 264.093 63.172Z" fill="#6AA84D"/>
</g>
</g>
</g>
</g>
<defs>
<clipPath id="clip0_184_1238">
<rect width="280" height="68.75" fill="white"/>
</clipPath>
<clipPath id="clip1_184_1238">
<rect width="280" height="68.75" fill="white"/>
</clipPath>
<clipPath id="clip2_184_1238">
<rect width="279.982" height="68.75" fill="white" transform="translate(0.0090332)"/>
</clipPath>
<clipPath id="clip3_184_1238">
<rect width="261.581" height="67" fill="white" transform="translate(5 2.19)"/>
</clipPath>
</defs>
</svg>
