<svg width="28" height="20" viewBox="0 0 28 20" fill="none" xmlns="http://www.w3.org/2000/svg">
<path d="M11.1089 13.6248L18.6709 9.71876L11.1089 5.76576V13.6248ZM13.9999 0.155762C19.8909 0.155762 23.7969 0.436761 23.7969 0.436761C24.3439 0.499761 25.5469 0.499762 26.6089 1.62476C26.6089 1.62476 27.4679 2.46876 27.7179 4.40576C28.0149 6.67176 27.9989 8.93676 27.9989 8.93676V11.0618C27.9989 11.0618 28.0149 13.3278 27.7179 15.5928C27.4679 17.5148 26.6089 18.3738 26.6089 18.3738C25.5469 19.4828 24.3429 19.4828 23.7969 19.5458C23.7969 19.5458 19.8909 19.8428 13.9999 19.8428C6.71891 19.7798 4.48391 19.5618 4.48391 19.5618C3.85891 19.4528 2.45291 19.4838 1.38991 18.3738C1.38991 18.3738 0.530907 17.5148 0.280907 15.5928C-0.0160928 13.3268 -9.27746e-05 11.0618 -9.27746e-05 11.0618V8.93676C-9.27746e-05 8.93676 -0.0160928 6.67076 0.280907 4.40576C0.530907 2.46876 1.38991 1.62476 1.38991 1.62476C2.45191 0.499762 3.65591 0.499761 4.20191 0.436761C4.20191 0.436761 8.10791 0.155762 13.9989 0.155762H13.9999Z" fill="white"/>
</svg>
